<svg width="512" height="512" viewBox="0 0 512 512" xmlns="http://www.w3.org/2000/svg">
<rect width="512" height="512" rx="96" fill="#0d1b2a"/>
<rect x="4" y="4" width="504" height="504" rx="94" fill="none" stroke="#c0a050" stroke-width="2" opacity="0.5"/>

<!-- Basketball - top left -->
<g transform="translate(162, 172)">
  <circle cx="0" cy="0" r="52" fill="#E87521" opacity="0.95"/>
  <path d="M-52 0 Q0 -13 52 0" fill="none" stroke="#2a1508" stroke-width="2"/>
  <path d="M-52 0 Q0 13 52 0" fill="none" stroke="#2a1508" stroke-width="2"/>
  <line x1="0" y1="-52" x2="0" y2="52" stroke="#2a1508" stroke-width="2"/>
  <path d="M-22 -48 Q-33 0 -22 48" fill="none" stroke="#2a1508" stroke-width="1.2" opacity="0.7"/>
  <path d="M22 -48 Q33 0 22 48" fill="none" stroke="#2a1508" stroke-width="1.2" opacity="0.7"/>
</g>

<!-- Hockey puck - top right -->
<g transform="translate(350, 172)">
  <ellipse cx="0" cy="0" rx="42" ry="30" fill="#222"/>
  <ellipse cx="0" cy="0" rx="42" ry="30" fill="none" stroke="#555" stroke-width="1.5"/>
  <ellipse cx="0" cy="-4" rx="33" ry="22" fill="none" stroke="#666" stroke-width="0.8" stroke-dasharray="3 2"/>
  <line x1="-48" y1="-44" x2="22" y2="33" stroke="#c4a46c" stroke-width="5" stroke-linecap="round"/>
  <line x1="48" y1="-44" x2="-22" y2="33" stroke="#c4a46c" stroke-width="5" stroke-linecap="round"/>
  <line x1="-48" y1="-44" x2="-40" y2="-31" stroke="#ddd" stroke-width="7" stroke-linecap="round"/>
  <line x1="48" y1="-44" x2="40" y2="-31" stroke="#ddd" stroke-width="7" stroke-linecap="round"/>
</g>

<!-- Baseball - bottom left -->
<g transform="translate(162, 340)">
  <circle cx="0" cy="0" r="46" fill="#f5f0e8"/>
  <circle cx="0" cy="0" r="46" fill="none" stroke="#ccc" stroke-width="1"/>
  <path d="M-16 -44 Q-30 -22 -30 0 Q-30 22 -16 44" fill="none" stroke="#cc2222" stroke-width="2"/>
  <path d="M16 -44 Q30 -22 30 0 Q30 22 16 44" fill="none" stroke="#cc2222" stroke-width="2"/>
  <line x1="-24" y1="-33" x2="-17" y2="-31" stroke="#cc2222" stroke-width="1.2"/>
  <line x1="-29" y1="-22" x2="-22" y2="-21" stroke="#cc2222" stroke-width="1.2"/>
  <line x1="-30" y1="-11" x2="-24" y2="-10" stroke="#cc2222" stroke-width="1.2"/>
  <line x1="-30" y1="0" x2="-24" y2="0" stroke="#cc2222" stroke-width="1.2"/>
  <line x1="-30" y1="11" x2="-24" y2="10" stroke="#cc2222" stroke-width="1.2"/>
  <line x1="-29" y1="22" x2="-22" y2="21" stroke="#cc2222" stroke-width="1.2"/>
  <line x1="-24" y1="33" x2="-17" y2="31" stroke="#cc2222" stroke-width="1.2"/>
  <line x1="24" y1="-33" x2="17" y2="-31" stroke="#cc2222" stroke-width="1.2"/>
  <line x1="29" y1="-22" x2="22" y2="-21" stroke="#cc2222" stroke-width="1.2"/>
  <line x1="30" y1="-11" x2="24" y2="-10" stroke="#cc2222" stroke-width="1.2"/>
  <line x1="30" y1="0" x2="24" y2="0" stroke="#cc2222" stroke-width="1.2"/>
  <line x1="30" y1="11" x2="24" y2="10" stroke="#cc2222" stroke-width="1.2"/>
  <line x1="29" y1="22" x2="22" y2="21" stroke="#cc2222" stroke-width="1.2"/>
  <line x1="24" y1="33" x2="17" y2="31" stroke="#cc2222" stroke-width="1.2"/>
</g>

<!-- Soccer ball - bottom right -->
<g transform="translate(350, 340)">
  <circle cx="0" cy="0" r="46" fill="#f8f8f8"/>
  <circle cx="0" cy="0" r="46" fill="none" stroke="#999" stroke-width="1"/>
  <polygon points="0,-17 16,-5 10,14 -10,14 -16,-5" fill="#222" stroke="#444" stroke-width="0.5"/>
  <line x1="0" y1="-17" x2="0" y2="-46" stroke="#bbb" stroke-width="1"/>
  <line x1="16" y1="-5" x2="42" y2="-20" stroke="#bbb" stroke-width="1"/>
  <line x1="10" y1="14" x2="33" y2="35" stroke="#bbb" stroke-width="1"/>
  <line x1="-10" y1="14" x2="-33" y2="35" stroke="#bbb" stroke-width="1"/>
  <line x1="-16" y1="-5" x2="-42" y2="-20" stroke="#bbb" stroke-width="1"/>
</g>

<!-- Subtle divider lines -->
<line x1="60" y1="256" x2="452" y2="256" stroke="#c0a050" stroke-width="0.8" opacity="0.2"/>
<line x1="256" y1="100" x2="256" y2="412" stroke="#c0a050" stroke-width="0.8" opacity="0.2"/>

<!-- SWISH text -->
<text x="256" y="468" text-anchor="middle" font-family="Arial, Helvetica, sans-serif" font-size="30" font-weight="600" letter-spacing="8" fill="#f0f0f0">SWISH</text>

</svg>
